<mxfile host="app.diagrams.net" modified="2023-12-04T07:31:47.166Z" agent="Mozilla/5.0 (Macintosh; Intel Mac OS X 10_15_7) AppleWebKit/537.36 (KHTML, like Gecko) Chrome/119.0.0.0 Safari/537.36" etag="POigg2oEfzwVQ46YYvO3" version="21.6.1" type="device">
  <diagram name="Page-1" id="EVZbiV_OMmi9mPe7vW_z">
    <mxGraphModel dx="1240" dy="769" grid="1" gridSize="10" guides="1" tooltips="1" connect="1" arrows="1" fold="1" page="1" pageScale="1" pageWidth="827" pageHeight="1169" math="0" shadow="0">
      <root>
        <mxCell id="0" />
        <mxCell id="1" parent="0" />
        <mxCell id="Q8fhGLvmtVwp4SYfhRY6-1" value="Mock API" style="rounded=0;whiteSpace=wrap;html=1;" vertex="1" parent="1">
          <mxGeometry x="50" y="30" width="120" height="60" as="geometry" />
        </mxCell>
        <mxCell id="Q8fhGLvmtVwp4SYfhRY6-4" value="" style="rounded=0;whiteSpace=wrap;html=1;" vertex="1" parent="1">
          <mxGeometry x="40" y="120" width="960" height="370" as="geometry" />
        </mxCell>
        <mxCell id="Q8fhGLvmtVwp4SYfhRY6-5" value="" style="image;sketch=0;aspect=fixed;html=1;points=[];align=center;fontSize=12;image=img/lib/mscae/Docker.svg;" vertex="1" parent="1">
          <mxGeometry x="940" y="130" width="50" height="41" as="geometry" />
        </mxCell>
        <mxCell id="Q8fhGLvmtVwp4SYfhRY6-8" style="edgeStyle=orthogonalEdgeStyle;rounded=0;orthogonalLoop=1;jettySize=auto;html=1;entryX=0;entryY=0.5;entryDx=0;entryDy=0;entryPerimeter=0;" edge="1" parent="1" source="Q8fhGLvmtVwp4SYfhRY6-6" target="Q8fhGLvmtVwp4SYfhRY6-7">
          <mxGeometry relative="1" as="geometry" />
        </mxCell>
        <mxCell id="Q8fhGLvmtVwp4SYfhRY6-11" value="push joke" style="edgeLabel;html=1;align=center;verticalAlign=middle;resizable=0;points=[];" vertex="1" connectable="0" parent="Q8fhGLvmtVwp4SYfhRY6-8">
          <mxGeometry x="-0.1" y="-2" relative="1" as="geometry">
            <mxPoint y="-2" as="offset" />
          </mxGeometry>
        </mxCell>
        <mxCell id="Q8fhGLvmtVwp4SYfhRY6-27" style="edgeStyle=orthogonalEdgeStyle;rounded=0;orthogonalLoop=1;jettySize=auto;html=1;entryX=0.5;entryY=1;entryDx=0;entryDy=0;" edge="1" parent="1" source="Q8fhGLvmtVwp4SYfhRY6-6" target="Q8fhGLvmtVwp4SYfhRY6-1">
          <mxGeometry relative="1" as="geometry">
            <Array as="points">
              <mxPoint x="140" y="140" />
              <mxPoint x="110" y="140" />
            </Array>
          </mxGeometry>
        </mxCell>
        <mxCell id="Q8fhGLvmtVwp4SYfhRY6-28" value="pull" style="edgeLabel;html=1;align=center;verticalAlign=middle;resizable=0;points=[];" vertex="1" connectable="0" parent="Q8fhGLvmtVwp4SYfhRY6-27">
          <mxGeometry x="-0.28" y="-3" relative="1" as="geometry">
            <mxPoint as="offset" />
          </mxGeometry>
        </mxCell>
        <mxCell id="Q8fhGLvmtVwp4SYfhRY6-6" value="Producer" style="shape=process;whiteSpace=wrap;html=1;backgroundOutline=1;" vertex="1" parent="1">
          <mxGeometry x="80" y="160" width="120" height="60" as="geometry" />
        </mxCell>
        <mxCell id="Q8fhGLvmtVwp4SYfhRY6-7" value="Kafka cluster" style="outlineConnect=0;dashed=0;verticalLabelPosition=bottom;verticalAlign=top;align=center;html=1;shape=mxgraph.aws3.queue;fillColor=#D9A741;gradientColor=none;" vertex="1" parent="1">
          <mxGeometry x="280" y="166" width="73.5" height="48" as="geometry" />
        </mxCell>
        <mxCell id="Q8fhGLvmtVwp4SYfhRY6-10" style="edgeStyle=orthogonalEdgeStyle;rounded=0;orthogonalLoop=1;jettySize=auto;html=1;entryX=1;entryY=0.5;entryDx=0;entryDy=0;entryPerimeter=0;" edge="1" parent="1" source="Q8fhGLvmtVwp4SYfhRY6-9" target="Q8fhGLvmtVwp4SYfhRY6-7">
          <mxGeometry relative="1" as="geometry" />
        </mxCell>
        <mxCell id="Q8fhGLvmtVwp4SYfhRY6-12" value="pull new jokes" style="edgeLabel;html=1;align=center;verticalAlign=middle;resizable=0;points=[];" vertex="1" connectable="0" parent="Q8fhGLvmtVwp4SYfhRY6-10">
          <mxGeometry x="0.1268" y="-1" relative="1" as="geometry">
            <mxPoint as="offset" />
          </mxGeometry>
        </mxCell>
        <mxCell id="Q8fhGLvmtVwp4SYfhRY6-14" style="edgeStyle=orthogonalEdgeStyle;rounded=0;orthogonalLoop=1;jettySize=auto;html=1;entryX=0;entryY=0.5;entryDx=0;entryDy=0;entryPerimeter=0;startArrow=none;startFill=0;" edge="1" parent="1" source="Q8fhGLvmtVwp4SYfhRY6-9" target="Q8fhGLvmtVwp4SYfhRY6-13">
          <mxGeometry relative="1" as="geometry" />
        </mxCell>
        <mxCell id="Q8fhGLvmtVwp4SYfhRY6-15" value="bson" style="edgeLabel;html=1;align=center;verticalAlign=middle;resizable=0;points=[];" vertex="1" connectable="0" parent="Q8fhGLvmtVwp4SYfhRY6-14">
          <mxGeometry x="-0.0571" relative="1" as="geometry">
            <mxPoint as="offset" />
          </mxGeometry>
        </mxCell>
        <mxCell id="Q8fhGLvmtVwp4SYfhRY6-9" value="Consumer" style="shape=process;whiteSpace=wrap;html=1;backgroundOutline=1;" vertex="1" parent="1">
          <mxGeometry x="490" y="160" width="120" height="60" as="geometry" />
        </mxCell>
        <mxCell id="Q8fhGLvmtVwp4SYfhRY6-13" value="Mongo DB" style="shape=cylinder3;whiteSpace=wrap;html=1;boundedLbl=1;backgroundOutline=1;size=15;" vertex="1" parent="1">
          <mxGeometry x="680" y="150" width="60" height="80" as="geometry" />
        </mxCell>
        <mxCell id="Q8fhGLvmtVwp4SYfhRY6-25" style="edgeStyle=orthogonalEdgeStyle;rounded=0;orthogonalLoop=1;jettySize=auto;html=1;" edge="1" parent="1" source="Q8fhGLvmtVwp4SYfhRY6-16" target="Q8fhGLvmtVwp4SYfhRY6-20">
          <mxGeometry relative="1" as="geometry" />
        </mxCell>
        <mxCell id="Q8fhGLvmtVwp4SYfhRY6-26" value="show top on web" style="edgeLabel;html=1;align=center;verticalAlign=middle;resizable=0;points=[];" vertex="1" connectable="0" parent="Q8fhGLvmtVwp4SYfhRY6-25">
          <mxGeometry x="0.2" y="-1" relative="1" as="geometry">
            <mxPoint x="24" y="1" as="offset" />
          </mxGeometry>
        </mxCell>
        <mxCell id="Q8fhGLvmtVwp4SYfhRY6-16" value="Flask web" style="sketch=0;pointerEvents=1;shadow=0;dashed=0;html=1;strokeColor=none;labelPosition=center;verticalLabelPosition=bottom;verticalAlign=top;align=center;fillColor=#505050;shape=mxgraph.mscae.intune.dashboard" vertex="1" parent="1">
          <mxGeometry x="880" y="411.5" width="50" height="40" as="geometry" />
        </mxCell>
        <mxCell id="Q8fhGLvmtVwp4SYfhRY6-18" style="edgeStyle=orthogonalEdgeStyle;rounded=0;orthogonalLoop=1;jettySize=auto;html=1;entryX=0.5;entryY=1;entryDx=0;entryDy=0;entryPerimeter=0;" edge="1" parent="1" source="Q8fhGLvmtVwp4SYfhRY6-17" target="Q8fhGLvmtVwp4SYfhRY6-13">
          <mxGeometry relative="1" as="geometry" />
        </mxCell>
        <mxCell id="Q8fhGLvmtVwp4SYfhRY6-19" value="query top" style="edgeLabel;html=1;align=center;verticalAlign=middle;resizable=0;points=[];" vertex="1" connectable="0" parent="Q8fhGLvmtVwp4SYfhRY6-18">
          <mxGeometry x="0.0333" relative="1" as="geometry">
            <mxPoint as="offset" />
          </mxGeometry>
        </mxCell>
        <mxCell id="Q8fhGLvmtVwp4SYfhRY6-21" style="edgeStyle=orthogonalEdgeStyle;rounded=0;orthogonalLoop=1;jettySize=auto;html=1;" edge="1" parent="1" source="Q8fhGLvmtVwp4SYfhRY6-17" target="Q8fhGLvmtVwp4SYfhRY6-20">
          <mxGeometry relative="1" as="geometry" />
        </mxCell>
        <mxCell id="Q8fhGLvmtVwp4SYfhRY6-22" value="store cached top" style="edgeLabel;html=1;align=center;verticalAlign=middle;resizable=0;points=[];" vertex="1" connectable="0" parent="Q8fhGLvmtVwp4SYfhRY6-21">
          <mxGeometry x="-0.2" relative="1" as="geometry">
            <mxPoint as="offset" />
          </mxGeometry>
        </mxCell>
        <mxCell id="Q8fhGLvmtVwp4SYfhRY6-17" value="Warmer" style="shape=process;whiteSpace=wrap;html=1;backgroundOutline=1;" vertex="1" parent="1">
          <mxGeometry x="650" y="290" width="120" height="60" as="geometry" />
        </mxCell>
        <mxCell id="Q8fhGLvmtVwp4SYfhRY6-20" value="" style="outlineConnect=0;dashed=0;verticalLabelPosition=bottom;verticalAlign=top;align=center;html=1;shape=mxgraph.aws3.redis;fillColor=#2E73B8;gradientColor=none;" vertex="1" parent="1">
          <mxGeometry x="680" y="400" width="60" height="63" as="geometry" />
        </mxCell>
        <mxCell id="Q8fhGLvmtVwp4SYfhRY6-29" value="" style="shape=image;html=1;verticalLabelPosition=bottom;verticalAlign=top;imageAspect=1;aspect=fixed;image=img/clipart/Gear_128x128.png" vertex="1" parent="1">
          <mxGeometry x="190" y="140" width="26.43" height="31" as="geometry" />
        </mxCell>
        <mxCell id="Q8fhGLvmtVwp4SYfhRY6-30" value="recurring task" style="text;html=1;strokeColor=none;fillColor=none;align=center;verticalAlign=middle;whiteSpace=wrap;rounded=0;" vertex="1" parent="1">
          <mxGeometry x="210" y="120" width="60" height="30" as="geometry" />
        </mxCell>
        <mxCell id="Q8fhGLvmtVwp4SYfhRY6-31" value="" style="shape=image;html=1;verticalLabelPosition=bottom;verticalAlign=top;imageAspect=1;aspect=fixed;image=img/clipart/Gear_128x128.png" vertex="1" parent="1">
          <mxGeometry x="760" y="270" width="26.43" height="31" as="geometry" />
        </mxCell>
        <mxCell id="Q8fhGLvmtVwp4SYfhRY6-32" value="recurring task" style="text;html=1;strokeColor=none;fillColor=none;align=center;verticalAlign=middle;whiteSpace=wrap;rounded=0;" vertex="1" parent="1">
          <mxGeometry x="780" y="250" width="60" height="30" as="geometry" />
        </mxCell>
        <mxCell id="Q8fhGLvmtVwp4SYfhRY6-34" value="" style="shape=image;html=1;verticalAlign=top;verticalLabelPosition=bottom;labelBackgroundColor=#ffffff;imageAspect=0;aspect=fixed;image=https://cdn2.iconfinder.com/data/icons/boxicons-logos/24/bxl-python-128.png" vertex="1" parent="1">
          <mxGeometry x="40" y="450" width="40" height="40" as="geometry" />
        </mxCell>
        <mxCell id="Q8fhGLvmtVwp4SYfhRY6-36" value="&lt;b&gt;&lt;font style=&quot;font-size: 12px;&quot;&gt;Python&lt;/font&gt;&lt;/b&gt;" style="text;html=1;strokeColor=none;fillColor=none;align=left;verticalAlign=middle;whiteSpace=wrap;rounded=0;" vertex="1" parent="1">
          <mxGeometry x="80" y="455" width="60" height="30" as="geometry" />
        </mxCell>
        <mxCell id="Q8fhGLvmtVwp4SYfhRY6-37" value="" style="dashed=0;outlineConnect=0;html=1;align=center;labelPosition=center;verticalLabelPosition=bottom;verticalAlign=top;shape=mxgraph.weblogos.mongodb" vertex="1" parent="1">
          <mxGeometry x="216.43" y="456.84000000000003" width="20" height="30.26" as="geometry" />
        </mxCell>
        <mxCell id="Q8fhGLvmtVwp4SYfhRY6-38" value="&lt;b&gt;MongoDB&lt;/b&gt;" style="text;html=1;strokeColor=none;fillColor=none;align=left;verticalAlign=middle;whiteSpace=wrap;rounded=0;" vertex="1" parent="1">
          <mxGeometry x="236.43" y="456.97000000000014" width="60" height="30" as="geometry" />
        </mxCell>
        <mxCell id="Q8fhGLvmtVwp4SYfhRY6-39" value="" style="shape=image;verticalLabelPosition=bottom;labelBackgroundColor=default;verticalAlign=top;aspect=fixed;imageAspect=0;image=data:image/svg+xml,PHN2ZyB4bWxucz0iaHR0cDovL3d3dy53My5vcmcvMjAwMC9zdmciIGlkPSJzdmcyIiBwcmVzZXJ2ZUFzcGVjdFJhdGlvPSJ4TWlkWU1pZCIgdmVyc2lvbj0iMS4xIiB2aWV3Qm94PSI2LjAwMDAwMDk1MzY3NDMxNiAwLjAwMDAwMTk4OTI1MzQwNTU1NDMzNjUgMTkuNzA5MDAzNDQ4NDg2MzI4IDMxLjk5OTk5ODA5MjY1MTM2NyIgaGVpZ2h0PSI2My45OTk5OTYxODUzMDI3MzQiIHdpZHRoPSIzOS40MTgwMDY4OTY5NzI2NTYiPiYjeGE7ICA8bWV0YWRhdGEgaWQ9Im1ldGFkYXRhMTIiPiYjeGE7ICAgICYjeGE7ICAgICAgJiN4YTsgICAgICAgIGltYWdlL3N2Zyt4bWwmI3hhOyAgICAgICAgJiN4YTsgICAgICAmI3hhOyAgICAmI3hhOyAgPC9tZXRhZGF0YT4mI3hhOyAgPGRlZnMgaWQ9ImRlZnMxMCIvPiYjeGE7ICAmI3hhOyAgPGcgdHJhbnNmb3JtPSJtYXRyaXgoMC4wNjcwMzE3OCwwLDAsMC4wNjcwMzIwNCw1LjYwOTU4NjYsMS4wMTUwODEpIiBpZD0iZzQiPiYjeGE7ICAgIDxwYXRoIHN0eWxlPSJmaWxsOiMwMDAwMDAiIGlkPSJwYXRoNiIgZD0ibSAyMzcuNjE2ODYsMjQ5LjI2Nzc0IGMgLTE4LjU5MDE3LDAgLTM1LjI1NjU1LDguMjM2MTQgLTQ2LjY2OTUzLDIxLjIwMzA5IEwgMTYxLjcwMjIsMjQ5Ljc2NzM2IGMgMy4xMDQ0OSwtOC41NDczOSA0Ljg4NzAyLC0xNy43MjUzMyA0Ljg4NzAyLC0yNy4zMzE2NyAwLC05LjQzOTggLTEuNzIwNTEsLTE4LjQ2MzgzIC00LjcyMjc4LC0yNi44ODQ4OSBsIDI5LjE3OTY2LC0yMC40ODQxIGMgMTEuNDExODQsMTIuOTAxNDggMjguMDM0NTcsMjEuMDkyODMgNDYuNTcwNzYsMjEuMDkyODMgMzQuMzEyNDYsMCA2Mi4yMzIxOCwtMjcuOTE1MTMgNjIuMjMyMTgsLTYyLjIzMjE4IDAsLTM0LjMxNzA0OSAtMjcuOTE5NzIsLTYyLjIzMjE3MSAtNjIuMjMyMTgsLTYyLjIzMjE3MSAtMzQuMzEyNDUsMCAtNjIuMjMyMTcsMjcuOTE1MTIyIC02Mi4yMzIxNyw2Mi4yMzIxNzEgMCw2LjE0MjM2IDAuOTI4MDIsMTIuMDY1MzUgMi41OTMzOSwxNy42NzQ3OSBMIDE0OC43Nzg5LDE3Mi4wOTY1OSBDIDEzNi41ODE0NywxNTYuOTY0NjUgMTE5LjAxOTIzLDE0Ni4zOTkyOCA5OS4wMDk0NzMsMTQzLjE3NDIgbCAwLC0zNS4xOTEwOCBjIDI4LjE4OTYxNywtNS45MjA3IDQ5LjQyOTQ1NywtMzAuOTY2NzgyIDQ5LjQyOTQ1NywtNjAuODk0MTM2IDAsLTM0LjMxNzA1MiAtMjcuOTE5NzEsLTYyLjIzMjE3NCAtNjIuMjMyMTY3LC02Mi4yMzIxNzQgLTM0LjMxMjQ1OCwwIC02Mi4yMzIxNzQsMjcuOTE1MTIyIC02Mi4yMzIxNzQsNjIuMjMyMTc0IDAsMjkuNTI2NTE1IDIwLjY4OTY5NCw1NC4yNjM2NDYgNDguMzE1Mzg2LDYwLjYwNjk5NiBsIDAsMzUuNjQ4MiBjIC0zNy43MDE3ODIsNi42MTc4NiAtNjYuNDY1NjcxMiwzOS41MjEwNiAtNjYuNDY1NjcxMiw3OS4wOTE1MSAwLDM5Ljc2MzQgMjkuMDQ4NzI1Miw3Mi43ODcyIDY3LjAyMjcxMDIsNzkuMTc5OTQgbCAwLDM3LjY0MjA2IGMgLTI3LjkwODIzMSw2LjEzNDMyIC00OC44NzI0MjUsMzEuMDIzMDYgLTQ4Ljg3MjQyNSw2MC43NTA1NyAwLDM0LjMxNzA1IDI3LjkxOTcxNiw2Mi4yMzIxNyA2Mi4yMzIxNzQsNjIuMjMyMTcgMzQuMzEyNDU3LDAgNjIuMjMyMTY3LC0yNy45MTUxMiA2Mi4yMzIxNjcsLTYyLjIzMjE3IDAsLTI5LjcyNzUxIC0yMC45NjQxOSwtNTQuNjE2MjUgLTQ4Ljg3MjQxOCwtNjAuNzUwNTcgbCAwLC0zNy42NDMyIEMgMTE5LjE4MjMyLDI5OC4zMTEzIDEzNi40MjE4MiwyODcuOTU0OTcgMTQ4LjQ5NDA2LDI3My4xNTg0IGwgMjkuNDQwMzgsMjAuODM3ODYgYyAtMS42MzQzNyw1LjU1ODkgLTIuNTQ5NzUsMTEuNDIzMzIgLTIuNTQ5NzUsMTcuNTAzNjYgMCwzNC4zMTcwNSAyNy45MTk3Miw2Mi4yMzIxNyA2Mi4yMzIxNyw2Mi4yMzIxNyAzNC4zMTI0NiwwIDYyLjIzMjE4LC0yNy45MTUxMiA2Mi4yMzIxOCwtNjIuMjMyMTcgMCwtMzQuMzE3MDUgLTI3LjkxOTcyLC02Mi4yMzIxOCAtNjIuMjMyMTgsLTYyLjIzMjE4IGwgMCwwIHogbSAwLC0xNDUuNTEzNTMgYyAxNi42Mzg4MiwwIDMwLjE3MiwxMy41Mzg5MiAzMC4xNzIsMzAuMTczMTQgMCwxNi42MzQyMiAtMTMuNTMzMTgsMzAuMTcxOTkgLTMwLjE3MiwzMC4xNzE5OSAtMTYuNjM4ODEsMCAtMzAuMTcxOTksLTEzLjUzNzc3IC0zMC4xNzE5OSwtMzAuMTcxOTkgMCwtMTYuNjM0MjIgMTMuNTMzMTgsLTMwLjE3MzE0IDMwLjE3MTk5LC0zMC4xNzMxNCBsIDAsMCB6IE0gNTYuMDMzNjIyLDQ3LjA4ODk4NCBjIDAsLTE2LjYzNDIyIDEzLjUzNDMyNywtMzAuMTcxOTkyIDMwLjE3MzE0MSwtMzAuMTcxOTkyIDE2LjYzODgxNywwIDMwLjE3MTk4NywxMy41Mzc3NzIgMzAuMTcxOTg3LDMwLjE3MTk5MiAwLDE2LjYzNDIyIC0xMy41MzMxNywzMC4xNzE5OTEgLTMwLjE3MTk4NywzMC4xNzE5OTEgLTE2LjYzODgxNCwwIC0zMC4xNzMxNDEsLTEzLjUzNzc3MSAtMzAuMTczMTQxLC0zMC4xNzE5OTEgbCAwLDAgeiBNIDExNi4zNzg3NSw0MDAuMDA4MjYgYyAwLDE2LjYzNDIyIC0xMy41MzMxNywzMC4xNzE5OSAtMzAuMTcxOTg3LDMwLjE3MTk5IC0xNi42Mzg4MTQsMCAtMzAuMTczMTQxLC0xMy41Mzc3NyAtMzAuMTczMTQxLC0zMC4xNzE5OSAwLC0xNi42MzQyMiAxMy41MzQzMjcsLTMwLjE3MiAzMC4xNzMxNDEsLTMwLjE3MiAxNi42Mzg4MTcsMCAzMC4xNzE5ODcsMTMuNTM3NzggMzAuMTcxOTg3LDMwLjE3MiBsIDAsMCB6IE0gODYuMjA0NDY2LDI2NC41MTU2OCBjIC0yMy4yMDYxMzMsMCAtNDIuMDg0NTg4LC0xOC44NzUwMSAtNDIuMDg0NTg4LC00Mi4wNzk5OSAwLC0yMy4yMDYxMyAxOC44Nzg0NTUsLTQyLjA4NDU5IDQyLjA4NDU4OCwtNDIuMDg0NTkgMjMuMjA0OTg0LDAgNDIuMDgzNDM0LDE4Ljg3ODQ2IDQyLjA4MzQzNCw0Mi4wODQ1OSAwLDIzLjIwNDk4IC0xOC44Nzg0NSw0Mi4wNzk5OSAtNDIuMDgzNDM0LDQyLjA3OTk5IGwgMCwwIHogbSAxNTEuNDEyMzk0LDc3LjE1NzM4IGMgLTE2LjYzODgxLDAgLTMwLjE3MTk5LC0xMy41Mzg5MiAtMzAuMTcxOTksLTMwLjE3MzE0IDAsLTE2LjYzNDIyIDEzLjUzMzE4LC0zMC4xNzE5OSAzMC4xNzE5OSwtMzAuMTcxOTkgMTYuNjM4ODIsMCAzMC4xNzIsMTMuNTM3NzcgMzAuMTcyLDMwLjE3MTk5IDAsMTYuNjM0MjIgLTEzLjUzMzE4LDMwLjE3MzE0IC0zMC4xNzIsMzAuMTczMTQgbCAwLDAgeiIvPiYjeGE7ICA8L2c+JiN4YTs8L3N2Zz4=;" vertex="1" parent="1">
          <mxGeometry x="140" y="455.00000000000006" width="19.56" height="32.1" as="geometry" />
        </mxCell>
        <mxCell id="Q8fhGLvmtVwp4SYfhRY6-41" value="&lt;b&gt;Kafka&lt;/b&gt;" style="text;html=1;strokeColor=none;fillColor=none;align=left;verticalAlign=middle;whiteSpace=wrap;rounded=0;" vertex="1" parent="1">
          <mxGeometry x="159.56" y="455.00000000000006" width="60" height="30" as="geometry" />
        </mxCell>
        <mxCell id="Q8fhGLvmtVwp4SYfhRY6-42" value="" style="image;sketch=0;aspect=fixed;html=1;points=[];align=center;fontSize=12;image=img/lib/mscae/Cache_Redis_Product.svg;" vertex="1" parent="1">
          <mxGeometry x="310" y="457.9100000000001" width="33.47" height="28.12" as="geometry" />
        </mxCell>
        <mxCell id="Q8fhGLvmtVwp4SYfhRY6-43" value="Redis" style="text;html=1;strokeColor=none;fillColor=none;align=left;verticalAlign=middle;whiteSpace=wrap;rounded=0;fontStyle=1" vertex="1" parent="1">
          <mxGeometry x="346.74" y="456.97" width="60" height="30" as="geometry" />
        </mxCell>
        <mxCell id="Q8fhGLvmtVwp4SYfhRY6-44" value="" style="shape=image;verticalLabelPosition=bottom;labelBackgroundColor=default;verticalAlign=top;aspect=fixed;imageAspect=0;image=data:image/svg+xml,PHN2ZyB4bWxucz0iaHR0cDovL3d3dy53My5vcmcvMjAwMC9zdmciIHdpZHRoPSI1MTIiIHZpZXdCb3g9IjAgMCA1MTIgNTEyIiBoZWlnaHQ9IjUxMiI+PHBhdGggZmlsbC1ydWxlPSJldmVub2RkIiBkPSJtMTQ1Ljk3MyAxMjQuNDgyYy0xLjc2Ni0xNS4yOTkgMTIuMDAzLTguODE0IDEwLjI0NC40MS0yLjU4NCAyLjQ1OC03LjM1Ny40NDItMTAuMjQ0LS40MXptMTYuMzktMi44NjljMy40NjgtLjM1NCA2Ljc3NC0uODc0IDcuNzg3LTMuNjg3LTQuNzk3LTIuOTU3LTExLjk2NSA0LjMzOS05LjAxNiA3Ljc4NyAxLjYzNy0uMTM5LjE4OS0zLjM2MiAxLjIyOS00LjF6bS00NS44OTUgOS40MjVjMi44ODgtMS4zNDMgNy42MzMtLjgzNiA5LjAxNi0zLjY4Ny04LjU5Ni0yLjk5NC0yNC4wNzYtLjc4NC0yNi42MzggNC45MTcgNi41NTMtLjQwNSAxMi4wMzMtNS42MDUgMTcuNjIyLTEuMjN6bS0xOS4yNjEgMS42NDFjLTEuODYyLS4zOTEtMi41OCAxLjcyNC0xLjYzOCAyLjg2NyAxLjQ1NS0uMDQ4IDEuNjQ5LTEuMzU2IDEuNjM4LTIuODY3em0tNC41MDggOC4xOTZjLS4yNjItMy45MDktOS43MTgtNy4wMy0xMC42NTMtMS42MzkuODE4IDMuMDYxIDguNDQ1IDUuMDMgMTAuNjUzIDEuNjM5em0tMTUuOTgtMy42ODdjLTEuOTUzLjA5MS0yLjk1NyAxLjE0Mi00LjA5OSAyLjA0OCAxLjQ4Ni44NjYgNC43NzguNTU2IDQuMDk5LTIuMDQ4em0tNC45MTYgMTEuMDYyYzcuMjE4LS41MDcgOS40MTUgNi4xMyAxNS41NjkgNS4zMjcgMS4xNDctNy4xNDQtMTMuNTM1LTE2Ljk3MS0xNS41NjktNS4zMjd6bTk3LjUyNiAzNS42NDljLTIuMTUyLTcuMTQyIDQuNDM4LTEzLjI3Mi40MDktMTguODUxLTUuNTc4LjQ0NS0xMC40MDIgMjYuMzM0LTIuNDU4IDI2LjIzIDUuNzA0LS4wNzkgNy43MTUtMTUuNzM4IDguMTk0LTIwLjg5OC00LjE3NiAyLjM3NC0yLjM1NyAxMC43NTItNi4xNDUgMTMuNTE5em0tNjguNDMzLTIuODY1Yy4xMjQtMS4wODMtLjU2OC0xLjM0Ny0xLjYzOS0xLjIzMy4wMjcgMS4xMDYuOTM2IDEuOTcxIDEuNjM5IDEuMjMzem0yMC4wOCAxMS44ODNjLjA3OS0yLjUzOS0uMDIxLTQuODk3LTIuMDQ4LTUuMzI3LTEuNTQzLS4xNzUtMS40NTEgMS4yODEtMi40NiAxLjY0MS41NjMgMi4xNjYgMS43MDcgMy43NTcgNC41MDggMy42ODZ6bS0xOS42NyAxMy4xMTRjNy44NTcuODg0IDEzLjExOCA2LjU1MiAyMC40ODkgNi41NTQtNS44NzgtMy45NTctMTEuOTg1LTcuNjgzLTIxLjMwOS04LjE5NC0uMjk3IDEuMTE4LjgxNC44MjUuODIgMS42NHptNjEuODc3IDYuMTQ2Yy0uNjExLTIuODA1LTEuODI4LTUuMDA1LTMuMjc3LTYuOTY4LjUzMyAyLjg4IDEuMjY4IDUuNTU5IDMuMjc3IDYuOTY4em0tNDUuMDc3IDkuMDE0Yy01LjE0My02Ljg4Mi0xMy4zMzctMTIuODc5LTIyLjUzNy0xNC4zNDMgMS4yOTkgMTAuOTkzIDEzLjUxOSAxMS4wNzIgMjIuNTM3IDE0LjM0M3ptLTEzLjkzMSAyLjQ1N2MtMy41MTItNS45MTEtOS41MzMtOS4zMTctMTYuODAzLTExLjQ3MSA0LjA4NiA1LjA3OCA3LjgyOSAxMi42NDYgMTYuODAzIDExLjQ3MXptLTE4Ljg1MS01LjczNGMxLjM5OSAyLjQyOSA0LjkxNiA0LjkxMiA0LjA5OSA4LjE5NS0zLjU5My0xLjA1LTUuMzQtMy45NDktOS4wMTYtNC45MTcgMS45NTIgMi43MTEgOS40MDIgMTQuNzI5IDEzLjkzMSAxNC4zNDUgMi44OTEtLjI1IDQuMTk4LTMuNDQxIDMuNjg4LTguNjA2LTIuMjE1LTQuNzU1LTkuMjY2LTYuODUzLTEyLjcwMi05LjAxN3ptMjAuODk5IDEwLjY1NGMuOTExIDIuNTA1IDEuMjMxIDUuNTk4IDQuNTA5IDUuNzM1LS41NTgtMi44NTUtMi4yMjYtNC42MDQtNC41MDktNS43MzV6bS0yLjg2OSAxLjIzMWMtMS41MjgtLjE2Ny0yLjQwMy4zMjQtMi40NTcgMS42MzYuNDU5LjA5LjYzOC40NTQuODE4LjgxOSAxLjMxLS4wNTEgMS44MDYtLjkyNyAxLjYzOS0yLjQ1NXptNzAuMDczIDkuNDIzYy40MjctMi4zMTYuODYxLTYuNzc4IDAtOS4wMTYtLjUyNiAyLjMwMi0yLjUwNSA3LjQ4IDAgOS4wMTZ6bS0yOC42ODQtOC42MDZjLjMxMyAyLjQyMi0uODU4IDYuMzIzIDEuMjI5IDYuOTcuMDkxLTEuNzkzLjUwOS01LjgzMS0xLjIyOS02Ljk3em0xOS4yNTkgOS40MjZjLTEuMTg5LTEuMDU0LTIuODk1LjUzOS0zLjY4OC0uNDA4LS44MzgtMi43MTMtLjQ5MS02LjYxLTIuODY4LTcuNzg3LS4yNzEgMC0uNTQ2IDAtLjgxOCAwLTMuMzc1IDYuOTktMy4wNDIgMjIuMDA3IDIuODY3IDI1LjgxNCAxLjExNiAxLjg5MSAxLjIyNSA0Ljc4NyA0LjA5OCA0LjkyIDIuMzYyLTEuODc1IDIuOTQyLTUuNTI0IDMuMjc5LTkuNDI4LTUuMTI5LTEuMDc3LS4zNTEtOS45MTgtMi44Ny0xMy4xMTF6bTEyLjI5NSA0LjUwNWMuNTA1LTMuNjI4IDMuNjA3LTguOTA1IDEuMjI5LTEyLjctLjc4NSAzLjU5MS0yLjI3MSA4LjY1Mi0xLjIyOSAxMi43em0tNzIuMTIyIDMuMjgzYy42NTMtMS44NzMuMTQtNS4wNS0xLjIzLTYuMTQ4LS45NTYgMS43OTQtMS41MTIgNS45MjYgMS4yMyA2LjE0OHptNy4zNzUgMS42MzdjMS42NTUgMS4wNzcgMS43ODIgMy42OCA0LjA5OSA0LjA5OCAyLjg4My0zLjY4LTIuNTg2LTEwLjE2Ni00LjA5OS00LjA5OHptNzAuMDczIDguMTk0Yy4wMDMgMS4yNTYtMS42NDMgMi45NzQtLjQwOSA0LjA5Ny4yMzctMS4wMTUgMS40ODQtMy4xMjcuNDA5LTQuMDk3em0zLjY4NyAxNS45ODJjLS4wMTctMS44OTIuMjMxLTQuMDUtLjgxOC00LjkxNS0uMTg0IDEuNDU5LTEuMjY1IDQuNjkuODE4IDQuOTE1em0tNTIuMDQxIDE2LjgwNGMuMjQzIDEuNTI2LjQ5MiAzLjA1NyAyLjA0OCAzLjI3NyAxLjAwNS0xLjQwNi4yNjMtMy44OTYtMi4wNDgtMy4yNzd6bTE4LjQ0IDIuMDVjLjU3IDEuMDgyIDIuMjA4IDMuMjMxIDMuMjc3IDIuNDU0LS45NDgtLjY5OS0yLjA0Mi0zLjQwMS0zLjI3Ny0yLjQ1NHptMzguOTI4IDQuNTA4Yy0xLjE1MSA0Ljg3OSAxLjU3NCA5LjMyNCAzLjY4OSAxMi4yOTMuODY2LTQuNzU3Ljc4NS0xMS41NjktMy42ODktMTIuMjkzem0xMC4yNDcgMzEuNTQ3Yy42MTktMS4yMzkuODM4LTUuMDU3LS40MS01LjczLTEuMDc5IDEuNDgtMi4wNDEgNS4wMjMuNDEgNS43M3ptMTguNDM2IDE5LjY3NGMtLjU5My0zLjAxMS0yLjk1Mi02LjI2My01LjMyNS02LjE1LjgzIDIuOTkzLjk3NCA2LjY3OCA1LjMyNSA2LjE1em0zLjY5MiA1LjczNWMuMDE3IDEuODk2LS4yMjkgNC4wNTkuODE4IDQuOTE1LjA1My0xLjk1OS4wMjUtMy44NDctLjgxOC00LjkxNXptLTEzNS4yMy40MTFjLjAwNiAxLjUwMS44MDkgMi4xOTYgMS42NDEgMi44NjktLjE2NC0xLjM0My0uMzU2LTIuNjQ4LTEuNjQxLTIuODY5em0xNDkuOTgyIDIyLjUzNWMtMS4wMDktNy43MjctNS4wNzMtMTIuNDA0LTEwLjI0NC0xNS45NzcuNzQgNy45OTcgNC42NTkgMTIuODI1IDEwLjI0NCAxNS45Nzd6bTY1Ljk3NiA0MC41NzFjLS4yNDktLjIzMi0xLjk0Ni0uOTU2LTIuMDUgMCAuNjE2LjQ3NCAxLjcyNiAxLjQzOSAyLjA1IDB6bTIwNy43NjEgMzAuMzI0djQuNTA4Yy0uNjY2IDEuMzg1LS44ODIgMy4yMTUtMS4yMzEgNC45MTYtMTEuMzk1IDcuMzE4LTMyLjgwMyA0LjYyNC00Mi4yMDkgMTMuOTM1LTE2LjQ5Ny04Ljg4Ny0zMS44MjkgNS4xMTEtNDkuMTcgNi41NTktMi44NjUuMjM2LTYuMDUxLS4yNDEtOS4wMjEgMC0xMC4yNDYuODI3LTIwLjI1MiAzLjIyMy0zMC43MzEgNC4wOTYtMTAuNzQ1Ljg5NS0yMS41MTIgMS41NTEtMzIuNzgxIDIuMDUtNC4xMDEgMC04LjE5NiAwLTEyLjI5MyAwLTUwLjgyNS0yLjY2OS0xMDEuMDc3LTkuNTA2LTEzOC41MDgtMjYuMjI4LTE4LjY2MS04LjMzOC0zNS44MzgtMTguNTY3LTUxLjYzMi0zMC43MzUtMTUuMzctMTEuODM1LTMxLjE0Ny0yNC45OTMtNDIuMjEtMzkuNzQ3LTExLjc3OC0xNS43MTEtMjMuNTYyLTMwLjk4OS0zNC4wMTItNDguMzUyLTEwLjA4MS0xNi43NTktMTkuNTA0LTM0LjQxMi0yNy44NjQtNTQuMDk0LTguMjQ3LTE5LjQwOC0xNC4xMjMtMzguNjEzLTE5LjY3Mi02Mi4yODctMy42MjctMTUuNDg0LTcuNDU1LTMzLjAxNS0xMy45MzItNDcuNTM0LTIuNTIyLTUuNjU0LTUuNDU4LTEwLjI4Mi01LjczNi0xNS41NzQgMC0xLjIyNyAwLTIuNDYgMC0zLjY4NyAyLjAyMS0xNy4yMTIgMTUuNDA3LTI3LjIwMyAzMS4xNDMtMzEuOTY1IDMuOTQtMS4xOTEgNy43NzEtMi4zMjkgMTEuNDc0LTQuNTA4LjI0MS0uMTM5IDIuNjAyLS4zOCAxLjY0MS0xLjYzOC03LjAxMS0xLjY4Ny0xMi43NzkgOC42MzUtMjAuNDg5IDUuNzM3LTYuODQ1LTIuNTc0LTIuOTA0LTEzLjE3MiA0LjUwOC0xNi4zOTEgMy40Ni0xLjUwMyAxMC4zMy0xLjg5NCAxMy41MjEtMy42ODggNS41MDItMy4wOTIgNy45OTktOS42MjUgNi45NjgtMTUuNTcyLS42MTEtMy41MTQtNC4yNTgtNS4zNjQtNC4wOTgtOC4xOTYuMjI0LTMuOTQ5IDcuMjg1LTcuMzgzIDEwLjY1My05LjgzNSA0LjEyMS0yLjk5OSA4Ljk5OS02Ljc0NSA4LjYwNi0xMS40NzQtLjQxNC00Ljk0LTYuMjI0LTYuNTE0LTkuMDE2LTEwLjI0NC00LjM4My01Ljg1NC01LjA3OC0xNC42MDQgMi4wNDgtMTguMDMzIDcuNDcxLTMuNTk1IDIxLjM5LTEuNjM2IDIyLjk0OSA3Ljc4NyAxLjM3NCA4LjMwNS00LjUyMiAxMS40NjktMi4wNTEgMTcuNjIgNC42MDQgMTEuNDQ2IDQwLjQwOS02LjY3MiAzMS41NTYgMTcuMjEyIDcuODc0IDEyLjM0MyAzOC42NDUgMS43ODQgMzkuMzM5IDIxLjMwOSAxMi44MzQuMjU4IDE4LjczMiA5Ljk5NyAyOS4wOTQgMTMuOTMzIDIuNzc3IDEuMDU0IDYuMDg0IDEuMDU0IDkuMDE2IDIuMDQ4IDE3LjQ3NiA1Ljk0IDM5LjEzMiAxMi4zMTIgNDYuMzA1IDI5LjA5NS02LjQ4MiA0LjM2Ny0xNS4zMjggMS40NDMtMjIuOTQ2LTEuMjI5LTYuNjI3LTIuMzI3LTE2LjI4Ny02LjkzNS0yMi45NDktNC4wOTktNi42MDUgMi44MTMtNi4yNTIgMTQuMDk4LTUuMzI3IDI1LjQwNSAyLjQ2IDMwLjEwMiAzLjkwMyA2MS4xNTEgOC4xOTQgODguMTA0IDUuOTkzIDM3LjYyMyAxOC44MDMgNjcuNzU2IDM2Ljg4MyA5MS4zODQgMTcuNDkgMjIuODU5IDM4LjAzNyA0Ni43OTYgNjQuNzQzIDYzLjUxOCAyMi41MzUgMTQuMTA1IDQ3Ljg1MyAyNS4yMzQgNzkuOTEgMzIuMzcgNC43NTQgMS4wNjEgMTAuNTAxIDMuMzc3IDEzLjExMiAyLjg2OSAzLjg3MS0uNzQ0IDEyLjIwMS0xMi4wMDEgMTUuMTY2LTE0Ljc1IDcuMDQ5LTYuNTU0IDE2LjUzNC0xNS43MjQgMjYuNjMxLTcuNzg5LTEuMzcyIDEwLjkyNS0xMS4xNjEgMTMuNDMzLTEzLjUyMyAyMy4zNjIgNi4wNzEgMy44NjMgMTIuNTA5LjM2NiAyMC4wODIuODE1IDguODEyLjUyNCAxNS41NjkgNS41NzcgMjIuOTUxIDQuNTA4IDQuNzExLS42ODIgNy4wNjktNC4xOTEgMTAuNjUzLTYuNTU0IDguMTQyIDExLjkwMyAzOS41MzQtMy41OTIgNDQuMjU1IDExLjA2M3ptLTg4LjkyNy0zMC4zMjRjLS4xNzQtMS4zMjIuNTQxLTMuNTQzLS44MTgtMy42ODQtMS4xODIuNTk5LTIuMzUgNC4zNjYuODE4IDMuNjg0em0tMjA2LjExNy0yODguNDg4YzQuMDE0IDIuNDA0IDcuNTQ4IDUuMjkyIDExLjA2MyA4LjE5OSAyLjExNi02LjIzMS0zLjk1Ny0xMC4yMTctMTEuMDYzLTkuODM3em0xMTAuMjMxIDMwMi4wMTFjMS41NjMuMzI5IDIuNjk0LjY0MSAyLjg2OS0xLjIyNy0xLjQ2LS4wOTUtMi40NTMuMjcxLTIuODY5IDEuMjI3em0tNTYuNTUyLTM2LjA2M2MtLjEzOCAxLjkzIDMuNzU1IDEuOTY3IDQuNTEyIDEuNjM5LS42NDEtMS4yODEtMi41ODMtMi45NDQtNC41MTItMS42Mzl6bS05LjgzNS03Ljc4NGMuNjgyLjY5IDIuNDA3LjMyNCAzLjY4OC40MTEuMTM3LTEuNTAxLS40NTgtMi4yNzgtLjgxOS0zLjI4MS0yLjE1NC0uMjM2LTIuNzQ5IDEuMDc3LTIuODY5IDIuODd6bS03OC42NzgtMTY3LjYwNGMtMS4xMTItLjk0Mi0xLjkxOS43ODQtMi40NTkgMCAxLjMzNS0xMC4xNjYgMy40OC0yNS44MTgtLjgxOS0zNC40MTgtMS4wNjMtLjkyOC0yLjc0NS4zMjYtMy4yNzctLjQxMiAyLjg2MS02LjgzIDQuNzkzLTIxLjA3NSAzLjY4Ny0yOS41MDQtLjM4OS0yLjk3MS0xLjkzMi04LjI1NS0zLjY4Ny05LjQyNS00LjQxLTIuOTM2LTguNDIzIDEuNTc2LTExLjQ3NiAyLjQ1OS0xLjkyMS41Ni00LjA1Ny4xNi02LjE0Ni40MDgtOC4yNjMuOTk2LTE3LjAzMSAzLjQ2LTIyLjUzNyA2LjE0NiAyLjg3IDEuOTEzIDYuOTM4IDIuNjI0IDguMTk0IDYuMTQ2LTcuMTQtLjUwNS0xMi43MS0yLjU4My0xOC44NTEtNC4wOTYuNjU1IDkuMjQ1LTEwLjY4MyA2LjM0OC0xNy42MTkgNi45NjggMi4zOTYuMDUyIDIuNzggMS4yMSAyLjg2OSAyLjg2Ny4yODUgNS40MzktMTcuNjEzIDExLjg4NS0yMy43NjggNy43ODktOC43NzkgNy4wNzggMy44NjMgMTQuMzA4IDMuMjc4IDIzLjM1OC0xLjcyNiAxLjI3OS0yLjUyMyAzLjQ4NS00LjA5OCA0LjkxMy04LjcyNS4yMTItMTcuOTAyIDEuOTY3LTE2LjM5NCAxMS4wNjYtMS4xNzktLjY4OC0zLjAzOS0xLjE0Ny00LjUwOC0uNDEyLTIuMjMgNS43NDUgMS41MTQgMTEuOTgxIDYuNTU5IDEzLjExNiAxLjI3MS0uMzcgMS41NjctMS43MTEgMy4yNzgtMS42MzkgMTEuMzk2IDIuMTc5IDE1LjQwOCA5LjczNyAxNC43NTMgMjQuMTc0LS4xMTQgMi40ODYuMTMzIDUuNzMtMS42MzkgNy4zNzktNi40NjctLjQ0My0xMi40NjMtMTYuNDA1LTIuMDUtMTYuOC0yLjQ5Ny0zLjY3NC00LjM4OC05LjE1NS05LjAxNi05LjAxOC01LjMwNS4xNTgtNy42ODYgOC41NDItMTEuNDc0IDExLjQ3NSA1LjQ2IDMuMDE3IDE4LjI4MyAxMS4zNDMgNy43ODUgMTYuODAxIDUuMTk3Ljc3OSA4LjA5NyAyLjg0IDEwLjI0NCA1LjczNCAzLjU3OCA0LjgzMiAzLjQ2NCAxMi4wNzIgNi4xNDggMTUuOTg1IDUuNDMxIDcuOTIyIDguMjk4LTcuMTA2IDE0Ljc1LS44MjMgMS41MjQuNTI0LS42NzEtMS40OC0uODE5LTEuNjM1LTUuNTM1LTUuOTc2LTEzLjk3Ny0xMC44NzQtMTcuMjEtMTguMDMxIDIuNDg1LTEuMTM5IDUuODE2LjEwNCA4LjE5NC40MDguOTQtNC44MTQtMi40MDUtMTAuMjYyLTEuMjI5LTEzLjkzNi44NDctMi42MzQgMi40MS0xLjQ3NCA0LjA5OS0yLjQ1Ni45OTMtLjU3OC4yMTYtMi43MyAyLjA1LTIuMDQ4LS4wMTEgNS42MjYtMy40MDEgMTUuMDk0LjQwNyAxOS4yNTkgNS41NjEuOTk4IDcuMTY3LTguNTY1IDExLjg4Ni04LjYwNSAyLjYzNi0uMDIzIDUuMTI3IDQuNjE3IDYuOTY1IDYuOTY2IDIuMjA4IDIuODE5IDUuMjA5IDYuMjgzIDQuNTA4IDkuNDIzLTEuNDc2IDYuNjItMTIuNTk0IDEuNTgtMTYuMzkxLTEuMjMgMi4zMTQgOS4xODYgMTYuNTUzIDEwLjYxMiAxNy4yMSAyMi41NDMuMDc1IDEuMzMxLS41OTcgMy4wMzEtLjQwOSA0LjUwNC44MDUgNi4yOTYgNi42NzYgMTAuOTc1IDEyLjcwMiA2Ljk3Ljg4NiAyLjI1OCAxLjAwMiA1LjI4NSAzLjI4MSA2LjE0NiAxLjk5Ni0xLjY4OCAxLjI4Ny02LjA4OSAyLjQ1Ny04LjYwOCA3LjE1IDEuNDk3IDEwLjg4MyA0Ljk0IDEzLjExMiAxMC42NTQgMS4xMDQgMi44MjcuODE5IDguMDY3IDUuMzI3IDguMTk2LjY5LTYuOTg2LTQuNzg0LTExLjMxNS01LjczNS0xOC4wMzEgMy42NzMgNS45MjYgMTYuOTIyIDEyLjMzOCAxNi4zOTIgMjEuNzItLjM1MiA2LjE4OC03LjcwNiA2Ljg2MS0xNC43NTMgNy43ODUgNi43MTYgMi4zMDggOS41MjkgOS44MyAxNi44MDEgMTIuMjkyIDEuOTU0LjY2NiA0LjQ2NC4wOTYgNi41NTYuODIzIDUuMzIxIDEuODUxIDEzLjgyOSAxMi43NTkgMTEuNDc2IDE5LjY3LTExLjMzOCA1LjcxNC0yMC4xODQtOS43My0zMi43ODQtOS40MjMgNS4zMTMgNi43NzQgMTQuMDA0IDkuMDI4IDIxLjMwOSAxMi4yOTMgNy44NjIgMy41MSAxNS43MzQgNy4xMDYgMjMuMzU4IDEwLjY1MyAxNy45NzIgOC4zNTkgMzAuNDQ3IDE5LjI5NiA0Mi4yMDkgMzMuMTkzLTguMTYxIDQuNDUtMzIuODk3LTIuOTUyLTE4LjAzMS04LjItNS4xNzEtLjE3NS0xMC42NDQtMy40MTgtMTUuMTY0LTEuNjM0IDIuMzk2IDE1LjYzNiAyMi45NjggMTMuMDk1IDM4LjUyMiAxNS41NjktMS40MTYgMi42ODItMy40MTIgNC43ODYtNC45MTkgNy4zNzcgMS4xOTkuNzA3IDIuODU2Ljk2NSA0LjkxOS44MTktLjk5NiAxLjU5Ny0zLjU4OSAxLjYwMS0zLjY5IDQuMDk2IDEuOTkyIDIuNjUzIDUuOTM1IDMuMzU2IDguNjA2IDUuMzI3IDEwLjUzMS03LjU1MiAxMS43MTIgOS41ODEgMTguNDQgOS44MzUgNi4zNTguMjM3IDcuNTc3LTguODk5IDEzLjkzNi05LjgzNS0xLjU5OCAzLjMyMy00LjcyNSA1LjExMS02LjE0NiA4LjYwOCA2LjIyNi0xLjUwNSA4LjAwMS00Ljg1NyAxMy4xMDctNi4xNSAxOC4yOTgtNC42MjkgMzMuMjk4IDEwLjYxMiA0OC4zNTUgMTIuMjk3IDUuNDE0LjYwMyAxMC43OTYgMy42NDMgMTUuNTczIDQuNTA4IDYuMTc2IDEuMTE0IDkuOTczLS45MTkgMTQuNzUxLTMuMjc3LTcuMjc3LTYuNzk1LTIzLjk4Ni00LjE0OS0yOS45MTItMTIuMjk3LjIyOS0xLjQwOSAxLjE5My0yLjA4MyAyLjA1LTIuODY1LTE5LjE4IDQuMjEzLTMxLjI1Ni03LjI4MS0zOS4zNC0xOC4wMzEtMjMuNjYyLTYuMTEyLTQ0LjQyMS0xNS4xMzMtNTQuNTA0LTM0LjgzMS0uNDg0LTEuODU1IDEuODE3LS45MTUgMS4yMzMtMi44Ny04LjMxOS05LjI1Ny0xNi42MzQtMTguNjU1LTIzLjM1OC0yOS41MDUtMi4zMjQtMy43NDYtMy45MTUtOC40NTQtNi41NTgtMTEuNDczLTEuNjc0LTEuOTEzLTQuNDgzLTIuOTY2LTYuMTQ2LTQuOTItMS44MjEtMi4xNDItMi4wNjktNC44MjQtNC45Mi01LjczNC0xLjA5NiAxLjYzNC0uMzYxIDUuMDk4LTEuMjI3IDYuOTY1LTEuOTcxLTcuOTEzLTYuMzYyLTE1LjQyOC0xNC43NTItMTUuNTczLS4xNTYtNS43NTUgNC40OTMtNi43MDMgNi45NjUtOS44MzUtMy4yNTQtMy45MTMtNC4wMzgtOC44NDEtNS43MzYtMTQuNzUtNC4xMjgtMTQuMzU5LTcuNTM5LTI5LjM1OS0xMS4wNjYtNDIuNjItNC42NzQgMS43NDUtNS45MTMgNi45MjYtOC4xOTQgMTEuMDY1LjIyNS01LjkyLjUwMi0xMS43OTIgMy42ODktMTQuNzU1IDEuNDU3LjE4MyAxLjYxNyAxLjY2NCAyLjQ1NyAyLjQ2Ljc3LTIuNzkyIDMuNDEyLTUuMzk2IDIuMDQ4LTkuMDE0LTEuMDU4LTEuNjM0LTQuMTUxLS44NzItNC45MTUtLjgxOSAyLjAyMi00Ljk0OSAzLjcyLTEzLjkzMSAxLjIzMS0xOS42N3ptMTY0LjczNCAyNDMuMDA3YzMuNTQzLTEuNTE0IDYuNzMyLTMuMzc3IDguMTkyLTYuOTctMy44NTEuOTY1LTkuMjgxIDIuNDItOC4xOTIgNi45N3ptLjQwOC04LjE5N2MtMi4zNyAxLjMxMy01LjAzNiAyLjM0MS02LjU1NCA0LjUwOCAzLjM5Ny4yMDMgNy4zNzctMy4yMDcgNi41NTQtNC41MDh6bS0xMi43MDEgNi4xNDZjMi4zMi0uNjE5IDQuODAzLTMuMDE1IDQuNTA4LTQuOTE5LTIuNjk0LjI3LTYuODYxIDIuMTkxLTQuNTA4IDQuOTE5em0xLjYzOS05LjQyN2MtMy42ODgtMS4xNjUtNi42OTkgMS43MjItNi45NyA1LjMzMSAzLjI4Ni0uODE1IDUuNTEtMi42OSA2Ljk3LTUuMzMxem0tMTEuNDc3LjgyM2MtMy42MDIuNjI4LTYuMjk2IDIuMTYyLTcuMzc3IDUuMzIzIDQuNDAzIDEuNzQ3IDYuNjU3LTIuMDM3IDcuMzc3LTUuMzIzem0tNS43MzUgMTAuNjU1YzEuMDE1LjA1OCAxLjk4Ny4wNzQgMi4wNS0uODIzLS42MTUtLjY1LTIuMzM3LS42LTIuMDUuODIzem02LjU1OC0xNy42MjRjLTUuNzM0LS40NC0xMi41OTIgMy4yODEtOS4wMTYgOC4xOTYgMy44MTgtMS45MjEgNy42ODUtMy43ODggOS4wMTYtOC4xOTZ6bS0yOC4yNzggNy43ODljMy41ODEuNTAzIDQuNTE3LTMuNTkzIDYuOTctMi44NzQgMS40MjMuODk4LjU1OCA0LjA4OCAyLjg2NSA0LjEwMSA1LjM2LTEuMDkgNy4yOS04LjQwNCA0LjA5Ny0xMy41MjMtNy4yMjQgMS4yNzEtMTMuODMzIDUuMjQ3LTEzLjkzMiAxMi4yOTZ6bTEuNjM4LTEwLjY1NWMtMi4xNzUgMS4xMDItNC40OTEgMi4wNTktNS43MzQgNC4wOTYgMi42ODEtLjExNiA2LjY3NC0zLjA3MyA1LjczNC00LjA5NnptLTExLjQ2OSAyLjA1Yy4yMjkgMS4wOS0xLjY4OCAyLjA4NC0uNDE2IDIuODY1LjM0MS0uNTE1IDIuNDk2LTIuNTQxLjQxNi0yLjg2NXptLTcuMzc3IDkuODMxYy0uMTI5LjU1OC0uNTg2Ljc4Mi0uNDA3IDEuNjM5aDEuNjM5Yy4xMTEtMS4wNzMtLjE1NS0xLjc2LTEuMjMyLTEuNjM5em0tNi4xNDYtMi4wNDZjLTIuMDcxLjExNi0yLjg1NCAxLjUxOC0yLjg3IDMuNjg1IDEuNzg0LS4zOTYgMy40MS0uOTU3IDIuODctMy42ODV6bS00MS4zOTMtMjAuOTAxYy0yLjUyNS0uMTExLTMuMjk1LjI3OS0uNDA3LjgyNCAyLjc1MS41MDcgNy42MDQuNzczIDkuNDI2IDAtMi4xNjMtLjAyNS03Ljc1Mi0uNzY1LTkuMDE5LS44MjR6bTEyLjI5Ny02LjU1NGMtMi4xNDQtMS42My02LjQ1NC0uNDQ5LTguNjA1LjQwOCAxLjI0MSAzLjQxIDcuMzM1IDEuODk2IDguNjA1LS40MDh6bS0xMy4xMTEgMzAuNzMyYzEwLjIyIDUuMzU2IDI0LjI5MiAxMS4yMDMgMzguOTI2IDkuNDI0LTEwLjYzNC01LjIwNy0yNi40NDgtNy40MjgtMzguOTI2LTkuNDI0em0tMTUuMTY0LTQuNTA4Yy45NzkgMS4zNDQgMy4yOTEgMS4zNTIgNC45MTUgMi4wNTEgMy4wMjUtMi45MjQtMy42MjQtNC41NzEtNC45MTUtMi4wNTF6bS0zOC41MjEtMzMuMTkzYy0yLjc2Ni4yNDEtNS43NzYuMjMzLTYuNTU2IDIuNDYyIDIuNjM1Ljk3NyA2LjQ0OC4zNyA2LjU1Ni0yLjQ2MnptLTcuNzg3IDEwLjY1NGMuOTYzLjg3MyAyLjczNCAxLjkxMyAzLjI3OSAwLS40MjQtLjQzMy0yLjkyNS0uODQ0LTMuMjc5IDB6bTQuOTE4LTM0LjgzMmMuMzcyLTEuNzEzLTIuODkxLTIuMzYxLTMuMjc3LS44MTguODk4LjQ2NCAxLjY3NiAxLjA1NSAzLjI3Ny44MTh6bTUuMzI5IDEzLjkzMWMtLjAyLS41NjIuMTkzLS44OTguNDA5LTEuMjI3LTEuMjIxLTEuMjYxLTMuNjktMS40ODUtNS43MzgtLjgxOS4zMjggMS45NzEgMy42MSAyLjc5NCA1LjMyOSAyLjA0NnptLjQxIDI2LjIzMmMuNTI0LjU1OCAxLjkzNC41NTggMi40NTggMCAuMTkzLTEuMjg5LS41MTItMS42NzYtMS4yMjktMi4wNTQtLjM2OC43MjgtLjk5IDEuMTk3LTEuMjI5IDIuMDU0em0xMi43MDQtNDcuMTI4Yy0xLjMzNS0zLjg1OS01LjY4OC0yLjg0MS04LjYwNy00LjA5Ny00LjY5MS0yLjAyMS04LjY5Ni02Ljg0NS0xNC43NTMtNi45NjUtLjI3MiAwLS41NDcgMC0uODE3IDAgNS4yNjggNi4yMDggMTIuMjQgMTIuODc5IDI0LjE3NyAxMS4wNjJ6bS0yMS4zMTEtMTUuMTU4Yy0zLjgyNS0yLjU5OS04LjAxNS00LjgzMi0xMy41MjMtNS43MzggMS43NTEgNC4zOTUgOC41NjcgNS45MDkgMTMuNTIzIDUuNzM4em0xMi43MDMgMTkuMjU0YzIuODczIDMuMDAzIDYuNDc5IDUuMjczIDEyLjcwNCA0LjkxNi0yLjM5My0zLjIxMS04LjExMS01LjI3LTEyLjcwNC00LjkxNnptMTUuNTcyIDE4LjQ0M2MtNC4yMTktMi45MjQtMTAuODU1LTcuNjY4LTE2LjM5MS02LjU1OSAzLjIwMiA0LjE3NiA5LjYzOSA3LjMwMyAxNi4zOTEgNi41NTl6bS0xNS41NzIgMTUuNTczYy0uMDk5LjU4My0uNjc0LjY4Ny0uODE5IDEuMjIzIDEuMDEgMS4zMTggMi41My0uOTQ4LjgxOS0xLjIyM3ptOS40MjUgMTIuMjkzYy4zNDggMS41NjMgMS44NTMgMS45NzEgMy4yNzkgMi40NTguNTU1LS45NDggMS42NDYtMS4zNiAxLjIyOS0zLjI3Ny0uOTk2LS41OTktNC41NzgtLjk0NC00LjUwOC44MTl6bTcuNzg3LTE4LjAzMWMtMS4yNjktLjc3Ny01Ljg5Ny0xLjY0Ni02Ljk2OCAwIDEuOTg4LjgwNyA1Ljg5MyAyLjg5NSA2Ljk2OCAwem0xLjIyOS0xMy45MzZjLjQxLTMuMDQ4LTMuMDM4LTMuMDYxLTQuNTA4LTIuMDUuMTM4IDIuMDUgMi44NSAxLjUyNyA0LjUwOCAyLjA1em00LjUwNy0yMi4xMjdjLTEuODUxLTIuNzk1LTYuOTkyLTIuMjk2LTEwLjY1NC0zLjI3Ny0yLjY4Mi0zLjM2OC05LjA5NS00LjU5MS0xNC43NTItMy42ODggNi40NzkgNC4zMTYgMTMuODQ4IDcuNzM0IDI1LjQwNiA2Ljk2NXptLS44MTkgMzkuMzM5YzEuNzYgMS41MTkgNC41MTkgMi4wMzggNi45NjYgMi44Ny4xMzEtLjk2NS42NDYtMS41MzkuNDA5LTIuODctMS4xOTMtMS4zNzYtNi4zNy0yLjA4Ny03LjM3NSAwem0tMzQuODMyLTY2LjM4NmMuNDEtMS45MTItLjcxNS0yLjI4Ny0yLjQ1OS0yLjA0Ni0uNjE4IDIuMTIxIDEuNDI2IDEuNTc2IDIuNDU5IDIuMDQ2em05LjgzNSA0LjkyYy0xLjE5Ny0uMzA0LS43OTQtMi4yMDgtMi40NTktMi4wNS0xLjUxIDEuMzg1IDEuMjEgMy40OTMgMi40NTkgMi4wNXptLTI4LjI3NSAyLjg2OWMtMS4zNi0zLjAwNy00LjQyNS00LjMxNi02LjU1Ni02LjU1OCAzLjk5Ni01Ljc4OS00LjkyLTguMTU5LTYuNTU3LTEyLjI5My0uMDE5LTEuMjQ3Ljg2NS0xLjU5MyAxLjIyOS0yLjQ2Mi0zLjQ0My0yLjAxNy03LjQxOS0zLjUwNS05LjQyNi02Ljk2MSAxLjU4NS0xLjE0NyA1LjgxLjM0MSA3LjM3NS0uODIzLTIuNDgyLTEuMDY5LTUuMTYyLTEuOTM4LTYuMTQ2LTQuNTA4IDEuNDM3LTMuMzQ0IDcuMjc5LTIuMjc5IDguNjA1LTUuNzM1LTcuMDU5LTEuNTU5LTE0LjA3Mi01LjMxLTIxLjcyLTQuOTE5LjA4NyAyLjkxOSAyLjY4NSAzLjMyNiAzLjY4OCA1LjMyNy0yLjI2Ny0xLjAwNy00LjEwMS0yLjQ1OC03LjM3NS0yLjQ1OC0uMjQ1IDIuMDIxIDEuMDY0IDIuNDg3LjgyMSA0LjUwOC0yLjIzNS4xODMtMy4zNjgtLjczMS01LjczOS0uNDA3IDEuNjkgMy43NzEgNi4wMjQgNC45MDIgNy4zNzggOS4wMTYtMS42NzYuNDI0LTMuOTUxLS42NjYtNC41MDggMCA0LjMyNiAzLjU5MyAxMC42NDQgNy4zODEgMTMuMTExIDExLjQ2OS00LjAyNS0uNzQ4LTYuMzI5LTMuMjI3LTEwLjI0Mi00LjA5NiAzLjI3NiA2LjQ4NyAxMS4yNTMgNy44MzkgMTcuMjEgMTEuMDY1IDYuMDk4IDMuMzAxIDExLjU2MiA4LjYyNSAxOC44NTIgOS44MzV6bS05LjAxNiA0LjkxNmMxLjcxMy45MzYgNS4xMjMgMy45MDggNy4zNzcgMS42NDMtMS45LS44NDItNC44ODktMi43NTQtNy4zNzctMS42NDN6bS0zLjI3Ny0yLjA1MWMtMS4xNTMtMS44NjctNy4wMzYtMi44NjEtOC42MDQtMS42MzkgMi42NzQuNzcgNS4xOTQgMi44NDUgOC42MDQgMS42Mzl6bS03LjM3NyAxLjIzMWMtLjEyOS41NTctLjU4Mi43ODEtLjQwOSAxLjY0My43MjEtLjIzNyAyLjQwNy40OSAyLjQ1OS0uNDEyLS42MzYtLjQ1Ny0uODU1LTEuMzMxLTIuMDUtMS4yMzF6bS01LjMyNy01NC41MDJjLTEuMTE4LTMuODUxLTIuNjExLTguMDcxLTUuNzM2LTExLjA2Mi0xLjY4My0xLjYxMy0zLjMxMy0xLjU4LTQuNTA4LTMuNjkzLTMuMTY3LTUuNTcyLTEuNjQ5LTEzLjQzOS01LjczNy0xOS4yNTQtLjk2Ny0uMzE1LTIuODMyLS44MTEtMy42ODggMCAuMDc3IDIuNjg3IDYuMzEzIDkuMDU4IDIuMDUxIDEyLjI5My05LjQyNC4zNzQtMTMuMDUyLTcuMTI4LTIyLjEyOC01LjczOS0yLjA0NCA1LjI5NCA1LjE4MiA4LjAxNCAzLjI3NiAxMS44ODYgMTMuMDM2IDQuMTg0IDIzLjM4OSAxMy4yNDkgMzYuNDcgMTUuNTY5em0tMjkuNTA1IDEyLjI5M2MyLjQwOCAxLjgzNCA1Ljg4OSA0Ljc2NiA5LjAxNiA0LjUwOC0yLjQ3Ny0xLjc1NS00Ljc1Ni01Ljg4OC05LjAxNi00LjUwOHptLTQuNTA4LTMuNjg0Yy0xLjA2My0zLjMwNy0yLjkwNi01LjgzNS02Ljk2Ni02LjE0Ni44MjYgMy41NDIgNC42NzUgNC4wNjcgNi45NjYgNi4xNDZ6bS02Ljk2NiAxMC42NTRjMi4xOTQgMS41MDEgNC4zNzMgNS4xODEgNi41NTcgNS4zMjctMS41OTctMi4wOTItMy41NDMtNi4wMTMtNi41NTctNS4zMjd6bTIuODctMjguMjc4Yy4yMTItLjYwNy42MDQtMS4wMzEuODE5LTEuNjM5LTEuMDUxLTEuNDQ3LTMuNjQyLS42NTctNC4wOTcuODIzLjgwNi41NTggMi4zNC4zOTIgMy4yNzguODE2em02My41MTcgMTYuMzkyYy0uMDU4LTMuNTI2LTMuOTc1LTUuNTcyLTYuOTY3LTMuNjg1Ljk0OCAyLjYwNCAzLjgwNSAzLjI5NSA2Ljk2NyAzLjY4NXptLTM4LjUyMy01My42NzdjLjA2OS0uNjc4LTIuNTIzLS42NzgtMi40NTcgMCAuNTYyLjEyNCAyLjQ3MiAxLjg1IDIuNDU3IDB6bS0xNS45NzgtMS42NDNjLS41NDcgMC0xLjA5NCAwLTEuNjQxIDAtLjU2My41MjctLjQwNSAxLjc4NC0uNDEgMi44NjUuNzQ5LjExMiAyLjI5OCAxLjQ4IDIuODcuNDE1LTEuMDE0LS4zNTcuMTE4LTIuODUyLS44MTktMy4yOHptLTMwLjczNy0uNDEyYzEuMzU4IDMuMDkgNi44NTUgMi44NjEgNy43ODctLjQwNy0yLjMzMi0uOTAzLTUuNzY3LS4yNzUtNy43ODcuNDA3em0xLjIzMi0xMS40NzRjLTEuNTg1LS4wNzktMy4wMjEtLjAxMy00LjEwMS40MTIuMzE5IDEuNzg4IDQuMDkgMS40NyA0LjEwMS0uNDEyem0zLjY4Ni02NS45NzNjLTIuMTA2Ljk3My02LjQ5OC0uOTc1LTguNjA0IDAgMS44NjUgNy4zODMgMTUuNjg4IDMuNDA4IDE0Ljc1My0yLjQ2LS43OTQtNC45NzgtMTMuOTM5LTMuNzQ1LTE4LjQ0MS0zLjI3NyAzLjQ4OSAyLjUyIDkuMDM1IDIuOTg0IDEyLjI5MiA1LjczN3ptLTE2LjM5IDcuNzg1Yy43NzEgMS4xNDIgMi44OS45MzQgNC4wOTggMS42MzkuMjM3LS44NTQgMS4wMTctMS4xNjguODE5LTIuNDU4LTEuMDc1LS41NjgtNC45NDMtMS4wMTUtNC45MTcuODE5em0yMC45LTEuNjM4Yy0uMjIxLjg5NC0uOTk0IDIuNjUxLjQwNyAyLjg2OS45NzYtLjY4OC43NzItMi4yNzUtLjQwNy0yLjg2OXptMTEuNDc0LTI0LjU4OGMtLjEwOC0xLjE5OC45MjUtMS4yNTYuODE5LTIuNDU4LTEuNjY2LS4xNjMtMi44NTcuMTQ5LTIuODcgMS42MzguNzguMTc4IDEuMDI5Ljg4MyAyLjA1MS44MnptLS40MS05MC45NzJjLTEuNjMyIDEwIDcuMzc4IDIyLjA5NyAxOC4wMjkgMTguNDM5LjQ5Ny0zLjc3NC0xLjIyNS01LjMyOS0xLjIyOS04LjYwNCAyLjcxOC0uNjU5IDQuMzE4IDEuOTUxIDUuNzM2IDEuMjI5LTMuOTg2LTcuMjEzLTE0LjU4OS03LjgxLTIyLjUzNi0xMS4wNjR6bS00LjUxLTkuNDI1YzMuNjAyLjcxMyA5LjI1NS4zNTIgMTAuNjU2LTIuNDU5LTIuNzIxLTEuODE4LTEwLjg4NS0yLjMwNS0xMC42NTYgMi40NTl6bS05LjgzNS0yOC42ODZjLjc4OC03Ljk1OS04LjkzOC0xMi4zNTctMTQuNzUtNi45NjUtMy42MzMgMy4zNjgtNS4yMTEgMTEuNTAyLjQwOSAxNC4zNDMtLjYzOC0yLjA5Ni0yLjUwMS0yLjk2My0yLjA0OC02LjE0NiA0LjI3MS0yLjQ0MiAxMi4xMDIgMS4xOTEgMTYuMzg5LTEuMjMyem0tMi44NjUgMjYuMjI2YzEuMDQyLS41OTUgMi42MDctLjY2NiAyLjQ1OC0yLjQ1OC0xLjI2LjEyNy0zLjQwNyAxLjQ4NS0yLjQ1OCAyLjQ1OHptLTguNjA4IDMwLjMyNGM1LjExLjEyMSA4Ljk2My0yLjc2MSAxMy45MzMtMi44NjcgNC4zMDItLjA5MSA4LjQwMiAxLjE4OSAxMy41MjMuODE5LTMuNjU3LTEwLjczMy0yMS40MjYtMS4zNi0yNy40NTYgMi4wNDh6bS03Ljc4NSAxOC44NTFjOS42NjktMS4yMjkgMjMuMTQtNy41OTEgMzYuMDYxLTYuMTQ2IDQuODc0LjU0NCA5LjE0MyAzLjI4NyAxMS44ODMgNS4zMjctMS4zOTctMS40OTEtMy4wNTItNy42MSAwLTguNjA0IDYuNzI1IDEuMjgxIDYuOTQ5IDEzLjk4NyAxNS4xNjIgMTIuMjkzIDQuMTg0LS44NjMgNS40NTgtOC45NzkgMy4yNzktMTMuOTMzIDMuMTI3IDIuMiA0LjczOCA1LjkxNiA5LjAxNiA2Ljk2Ny0uOTc2LTMuOTQyLTMuODEzLTYuMDIzLTUuNzM2LTkuMDE2IDEuMjA4LTEuNTIyIDIuNzktMi42NzQgMi40NTctNS43MzktMTEuNzI3LTEuMTI3LTIyLjEzNiA1LjIwMy0zMy4xOTMgNy4zNzctOC41ODEgMS42OS0xNC45NjcgMy4zNjQtMjIuNTM1IDUuMzI3LTUuNjkgMS40NzUtMTIuMDIxIDIuNTEtMTYuMzk0IDYuMTQ3em0tMzQuNDIyIDg0LjgyN2MtLjU2My41MjItLjcxNCAyLjQ0OC40MDkgMi40NTguMzM3LS4yOTcgMS4xLTIuODM2LS40MDktMi40NTh6bTE0LjM0LTQ4Ljc2NGMtMTcuOTY5IDIuODUxIDEuMTg0IDIxLjk2MSAxMS44ODYgMTcuMjEyIDEuMzU1LTIuMDgxLjkzNC0zLjk4OC44MTktNi45NyA2LjIzNS42MTEgMTAuOTI2LTIuNDI2IDE2LjM5My0xLjIyNy44ODIgMS45MDUtLjc4NiAzLjUxOC0xLjIzIDUuMzI1IDE4LjU5My0xLjE3OSAyNy43OTktMTUuNzg4IDQ3Ljk0My0xOC4wMjkgMi41MDMtLjI3OSA1LjM1Ni4xNjQgOC4xOTggMCA4LjQ4My0uNDk1IDE3Ljg4LTIuMDY3IDI2LjYzNi0zLjY4OSA4LjU5MS0xLjU4OCAxNi40NDYtNC43NDcgMjMuNzY2LTYuNTU0IDkuMTg3LTIuMjcxIDIzLjE2My04LjI3MSAyMS4zMTEtMjAuNDkxLS4yMTItMS4zOTEtMS4xNzctMi42NDEtMi4wNS00LjA5OC00OC44MzQtNC43MjItODUuMzQ2IDE0LjQyMi0xMjMuNzU0IDIyLjEyOS00LjYxNC45MjUtMTAuMjI0LjMxLTEzLjkzNCA0LjA5NiAxLjM0MiAzLjMwMiA2LjA1OCAzLjIzMSA4LjE5NCA1LjczNy0xLjA2OCAxLjI1Mi0zLjcwOS45MzItNC4wOTYgMi44Ny45MDQgMy40NjYgNi4wNDIgMi42OTQgNi41NTYgNi41NTgtOC4xNTcgNS43NS0yNS4yNjEtMS41ODQtMjEuMzA5LTEzLjExNC0xMi4zMjUgMi43MDEtMzAuMjcgNS4zODUtMzAuMzIzIDE5LjI2LS4wMjUgNi4xMTUgMy42MiAxMS43NzEgNy43ODQgMTUuMTYyLTIuODIxLTEyLjkxIDEuOTc0LTMyIDE3LjIxLTI0LjE3N3ptMTUuMTY0IDc2LjYyOWMuMzczLTIuNzc1LTQuMTg4LTQuNzE4LTUuNzM2LTIuODY3IDEuNTEgMS4zNTcgMy44NzQgMS44NTggNS43MzYgMi44Njd6bS0xNC4zNDMgNS4zMjdjMi44OTggMTAuMDc2IDMuODQxIDIyLjExMyAxMS40NzQgMjcuNDU2LTEuMTQ5LTExLjgyOC01LjM0Ni0yMC42MDctMTEuNDc0LTI3LjQ1NnptMTcuMjExLTEwLjY1NGMxLjI3Ni01Ljc4NS03LjIxMS04LjA1MS03Ljc4NS00LjA5OS0uNTAxIDMuNDQyIDQuOTI2IDMuMDQyIDcuNzg1IDQuMDk5em0xLjY0LTExLjA2NmMtMS44NS0yLjAyMy02LjQ5My0zLjI3Ny05LjgzNC0yLjQ1OCAxLjE3OSAyLjkwMSA4LjQzMyA3LjE5NCA5LjgzNCAyLjQ1OHptLTQuOTE3LTE4LjAyOWMxLjg1MS0xLjE1NCAzLjgxNS0yLjE5OCA0LjA5Ni00LjkyLTIuMzc4LTEuNzgtOC4wNzEtMi4wMzEtOC42MDQuODI0LS40MDMgMi4xNTggMi40ODkgMy4wMzMgNC41MDggNC4wOTZ6bTUuMzI3IDYuOTY1Yy4xNzktMS40MDgtLjE2Mi0yLjI5NS0uNDEtMy4yNzktMi4xMDItLjA1Mi0zLjA4MyAxLjAxNS0zLjI3OCAyLjg3MSAxLjAyLjM0NCAyLjE5NS41MzUgMy42ODguNDA4em0tMjguNjg1LTIuMDQ4Yy0uMzE2LTEuMDUtLjQxLTIuMzIzLTEuMjI5LTIuODY4LTEuMDE5IDEuMTAzLTEuMDU4IDMuMDg0IDEuMjI5IDIuODY4em00LjA5OC0yNy44NjRjLTEuODM5LS43MTctNC41NjEuMDQ4LTUuMzI3IDEuNjM4Ljg2Ljc3NiAyLjA5OCAxLjE4MSAzLjI3OCAxLjYzNy40MTQtMS4zNTYgMi4yNjctMS4yODEgMi4wNDktMy4yNzV6bTQuNTA1IDUyLjg2MWMtMS4wNi0yLjM1NC0xLjE5My01LjYzNS0zLjI3Ni02Ljk2NS01LjYxMS43OTgtLjA1MiA4Ljg1OSAzLjI3NiA2Ljk2NXptNy43ODcgNDQuMjU1YzQuMDAxIDkuNjczIDguMjI0IDIwLjEyOCAxNi44MDMgMjQuNTg2LTYuNDE1LTcuMTM3LTcuOTI5LTE4Ljk0Ni0xMi4yOTUtMjcuNDU1LTEuNTEtMi45MzYtMy45MTktNS4yMTktNS4zMjctOC4xOTMtMy4zMTMtNy4wMDMtNC44NC0xNS4xNzQtMTEuNDczLTE4LjQ0MSAyLjYxNCAxMC4zMDUgOC4yMTMgMTkuNjMxIDEyLjI5MiAyOS41MDN6bTExMi42OTMgMTUzLjY3MWMtMi40OC04LjQ0Ni05LjEzNy0xMi43MjItMTguNDQxLTE0LjM0My0yLjMtNS40ODUtOC45MzgtNi42MjktMTAuMjQ0LTEzLjExMi0uMjEyLTEuMzMxIDIuNTM4LTEuODAxIDEuNjQxLTIuNDU4LTEyLjQ3MiAyLjM2Mi0xMi45MTItMTAuODU3LTE4Ljg1MS0xNi4zOTMtMTQuOTg3LjI3MS0xMi4xOTktMTguMjcyLTIwLjQ4OS0yNy44NjItMi4zNjgtMi43NDQtNC43MTYtMy4zNzctNy4zNzctNi4xNDYtNC4wOTUtMTIuNjkxLTE0Ljc4Mi0xOS4xMjktMjAuODk5LTMwLjMyMy01LjQzMy05Ljk0Ny02LjU3Ni0yMS4xNjctMTUuNTcxLTI4LjI3OCA3LjExNyAyNC4wOTUgMjIuMzY0IDQ0LjQ2MyAzNi4wNjEgNjQuNzQ4IDEwLjk2NCAxNi4yMyAxOC40MiAzMS42ODggMzAuNzMzIDQ0LjY2MyA0LjE4NCA0LjQwMyA4LjkwOCA3LjM1MiAxMy45MzQgMTEuNDczIDguNTQ5IDcuMDEgMTQuNDM2IDIwLjAxNCAyOS41MDMgMTguMDMxem0tMS42NDEtMjcuODY3Yy0uNDQxLTEuNzU1LTMuNjAyLTIuOTM5LTUuMzI3LTIuMDQ2IDEuNTg5Ljg3NCAzLjMzNSAxLjU4MSA1LjMyNyAyLjA0NnptMTUuMTYyLTEwLjY1NGMtMi43NzYtMy4yMzUtOC41ODgtNC40NjctMTMuOTMyLTYuNTU1LTYuNjI5LTIuNTk1LTE2LjA4Ny01LjA1Mi0yMC44OTgtMi4wNS40ODQgNC4wMjEgMy42ODcgNS4zMjcgNS43MzYgNy43ODUgNS42OTMuODc3IDguOTUxIDMuNjU1IDE0LjM0MSA0LjA5NiA2LjM1My41MjUgMTIuMjg2LjI0MiAxNC43NTMtMy4yNzZ6bTE5NS40NjcgOTMuNDM0Yy0xMi40LTUuNjU1LTMwLjU4Ni43MDctNDMuODQ4LTIuNDYyLTIuNTAzLS41OTktNC43MTYtMi4zMi02Ljk2NS0yLjQ1OC0yLjIzNy0uMTM3LTQuODQxIDEuMDQ0LTYuOTY2IDEuMjMxLTExLjM1NyAxLjAxLTIxLjcyNS0uMTEyLTMyLjM3LTEuNjQzLTcuNDY5LTEuMDczLTE1LjQyNC0xLjQ5My0yMi4xMzItMy4yNzctNi40MjUtMS43MDUtMTMuMDctNS42MzktMTkuNjctOC4xOTYtNi42OTctMi41OTEtMTMuNjY5LTUuMTczLTIwLjA3OS03Ljc4NS0xMi42NDYtNS4xNTItMjYuMDg2LTE0LjA2OC0zOS4zNC0xNy42MTkgOC45NDEgOS40OTggMjQuMzM0IDEyLjU1IDM0LjgzNCAyMC40ODktMTQuODM4LTQuMTUtMjYuMDM0LTExLjkzOS0zOS4zNC0xNy42MiAxMC4zNjcgOS4yODIgMjQuODMzIDE0LjkwNCAzOS4zNCAyMC44OTYgMTQuNDQ3IDUuOTcyIDMwLjE0NiAxMS4wMjQgNDcuMTIyIDEzLjUyMyAzMy43MjEgNC45NjcgNzMuMjcyIDEyLjM0NCAxMDkuNDE0IDQuOTIxem0xMC42NTQtMS4yMzFjLTIuMTA0LjA4NC00LjcyNS0uMzU0LTQuOTE1IDEuNjM5IDEuNzgzIDEuNTMgNC43ODIgMS4zNzEgNC45MTUtMS42Mzl6bTIyLjEyOC00OC4zNTZjLjU4MiAzLjAyOCA0Ljk3OCAyLjEyNSA0LjUxMi0xLjIzLTIuMjM0LS4zMTctMy4yMDIuNjMyLTQuNTEyIDEuMjN6bTM0LjAxMiAyMS4zMDljLTExLjAxNi0uMjY2LTI0LjYwNS00LjA3MS0zNi4wNjMtMy42ODUtNC4zOTYuMTQ2LTkuNzM5IDEuMTk4LTExLjA2MiA1LjczIDMuMzgxIDEuMzcyIDcuMDAzLjU0OSAxMS4wNjIuNDE2IDEzLjI5MS0uNDQ5IDI5LjUzMSA1LjUyMyAzNi4wNjMtMi40NjF6bTExLjA2Ni0uODJjLTEuOTE3LS4wMDQtMi40ODIgMS4zNDgtMi44NjkgMi44NjUuNTI3LjU2NSAxLjc3OS40MTIgMi44NjkuNDE2LS4xOTUtMS44MTMuNTYyLTIuMDQxIDAtMy4yODF6bTI0LjE3OC0xLjYzN2MtMi0uMzA0LTIuNzQ1IDIuMTgzLTIuMDUgMy4yOCAxLjI4OS4xOTUgMS42MDEtLjU4NiAyLjQ2MS0uODIzLjI5Ni0xLjI1Mi0uNzA3LTEuMjA2LS40MTEtMi40NTd6bTM0LjAwOSAyLjQ1N2MtOC4zODktLjg5NC0xOC4xODYtLjM0MS0yNS44MTMuODIzIDQuNDkxIDQuMjI5IDIwLjYyMiAxLjUzIDI1LjgxMy0uODIzem0tMzk0LjIxLTI0OS4xNTFjNC4wNDIgMi4yNDYgNy43NzIgNi45NzggMTMuMTE0IDYuNTU4LTEuNDQzLTEuOTcxLTMuNDg5LTMuMzQxLTQuOTItNS4zMjUgMS41MjItLjEyIDIuODE1LS40NjMgMy4yNzktMS42NC00Ljk4NC0zLjQ4Ny0xMS4zNzYtNy43NDYtMTMuOTMyLTEyLjI5NyAxLjY4NyAzLjI2OSA0LjI2OSA4LjQ3NyAyLjQ1OSAxMi43MDR6bTUyLjQ1MyAzLjI4MmMtLjg3Ny0uODk4LS40ODItMy4wNzMtMS42NDEtMy42ODgtLjI2MSAxLjc4My44OTMgNC4yNzYgMS42NDEgMy42ODh6bS0zNy43MDEgMzUuNjUzYy42MjggNi43NDcgNC45NCA5LjgwNiA1LjMyNyAxNi44LTQuNzktNS40NTQtNy40NjQtMTMuMDI3LTEwLjY1NC0yMC4wODMtLjMxMyA4LjUzNSAyLjI2NyAxMy44MjMgNC41MDggMTkuNjc0IDEuNzI1IDQuNDk2IDMuMzQyIDkuNzczIDcuNzg1IDExLjA2MyAyLjA3NS0uMzg3IDEuOTU5LTIuOTY2IDQuMTAxLTMuMjgxIDIuMjc4LjMyOCAzLjQ2NCAzLjkwNCA0LjkxNSAzLjY5Mi0xLjA5NC0xLjIzLTEuNDM1LTMuMjEtMS42MzktNS4zMjcuMzk2LTEuNTE4IDIuNTY2LTEuMjYgMy4yNzctMi40NjItNC4xMjEtOC40NDMtMTAuMDI4LTE1LjEwNS0xNy42Mi0yMC4wNzZ6IiBjbGlwLXJ1bGU9ImV2ZW5vZGQiLz48L3N2Zz4=;" vertex="1" parent="1">
          <mxGeometry x="398.25" y="454.2800000000001" width="31.75" height="31.75" as="geometry" />
        </mxCell>
        <mxCell id="Q8fhGLvmtVwp4SYfhRY6-45" value="&lt;b&gt;Flask&lt;/b&gt;" style="text;html=1;strokeColor=none;fillColor=none;align=left;verticalAlign=middle;whiteSpace=wrap;rounded=0;" vertex="1" parent="1">
          <mxGeometry x="430" y="457.91" width="60" height="30" as="geometry" />
        </mxCell>
      </root>
    </mxGraphModel>
  </diagram>
</mxfile>
